<?xml version="1.0" encoding="UTF-8"?>
<svg xmlns="http://www.w3.org/2000/svg" xmlns:xlink="http://www.w3.org/1999/xlink" viewBox="0 0 30 30" width="30px" height="30px">
<g id="surface59365490">
<path style=" stroke:none;fill-rule:nonzero;fill:rgb(90.588236%,29.803923%,23.529412%);fill-opacity:1;" d="M 15 2.5 C 12.808594 2.5 10.980469 4.136719 10.675781 6.25 L 4.0625 6.25 C 3.722656 6.246094 3.410156 6.421875 3.238281 6.714844 C 3.070312 7.007812 3.070312 7.367188 3.238281 7.660156 C 3.410156 7.953125 3.722656 8.128906 4.0625 8.125 L 5.398438 8.125 L 6.972656 24.394531 C 7.144531 26.164062 8.617188 27.5 10.394531 27.5 L 19.605469 27.5 C 21.382812 27.5 22.855469 26.164062 23.027344 24.394531 L 24.601562 8.125 L 25.9375 8.125 C 26.277344 8.128906 26.589844 7.953125 26.761719 7.660156 C 26.929688 7.367188 26.929688 7.007812 26.761719 6.714844 C 26.589844 6.421875 26.277344 6.246094 25.9375 6.25 L 19.324219 6.25 C 19.019531 4.136719 17.191406 2.5 15 2.5 Z M 15 4.375 C 16.175781 4.375 17.136719 5.167969 17.414062 6.25 L 12.585938 6.25 C 12.863281 5.167969 13.824219 4.375 15 4.375 Z M 12.1875 11.25 C 12.703125 11.25 13.125 11.667969 13.125 12.1875 L 13.125 21.5625 C 13.125 22.082031 12.703125 22.5 12.1875 22.5 C 11.671875 22.5 11.25 22.082031 11.25 21.5625 L 11.25 12.1875 C 11.25 11.667969 11.671875 11.25 12.1875 11.25 Z M 17.8125 11.25 C 18.328125 11.25 18.75 11.667969 18.75 12.1875 L 18.75 21.5625 C 18.75 22.082031 18.328125 22.5 17.8125 22.5 C 17.296875 22.5 16.875 22.082031 16.875 21.5625 L 16.875 12.1875 C 16.875 11.667969 17.296875 11.25 17.8125 11.25 Z M 17.8125 11.25 "/>
</g>
</svg>
